<svg width="25" height="32" viewBox="0 0 25 32" fill="none" xmlns="http://www.w3.org/2000/svg">
<path d="M0.410117 30.1604C0.439067 30.1604 0.468016 30.1567 0.496682 30.1494L4.28026 29.1826C4.3603 29.1622 4.42955 29.1152 4.48319 29.0515L23.5796 6.49049L24.6042 5.27999C25.1801 4.59962 25.1205 3.42231 24.4717 2.65543L23.2805 1.24809C22.6317 0.481217 21.6352 0.411135 21.059 1.0915L20.0344 2.30201L0.938587 24.8637C0.884661 24.9274 0.84521 25.0096 0.827897 25.1038L0.00964979 29.5739C-0.0198673 29.7349 0.021854 29.9026 0.120339 30.0189C0.198105 30.1105 0.302834 30.1604 0.410117 30.1604ZM2.80015 26.8528C3.1711 27.2911 3.47876 27.7988 3.70354 28.3393L2.55181 28.6337C2.43771 28.3064 2.26487 28 2.04718 27.7428C1.82694 27.4826 1.5732 27.2817 1.29308 27.1456L1.54198 25.7855C1.9995 26.0507 2.4292 26.4146 2.80015 26.8528ZM2.00432 24.9744L19.047 4.83871L21.4325 7.65707L4.38925 27.7937C4.12984 27.2022 3.78727 26.6489 3.37999 26.1678C2.96647 25.6792 2.50555 25.2795 2.00432 24.9744ZM1.11541 28.116C1.24256 28.1971 1.36062 28.3011 1.46734 28.4271C1.57264 28.5516 1.66119 28.6931 1.73016 28.8433L0.945398 29.0438L1.11541 28.116ZM21.6389 1.7769C21.8906 1.47947 22.3768 1.55122 22.7006 1.93349L23.8918 3.34083C24.2156 3.72343 24.2764 4.29783 24.0244 4.59526L23.2898 5.46307L20.9043 2.6447L21.6389 1.7769ZM20.3245 3.32976L22.71 6.14813L22.0124 6.97235L19.6269 4.15398L20.3245 3.32976ZM5.33152 23.9637C5.17145 23.7746 5.17145 23.4678 5.33152 23.2786L17.5005 8.90111C17.6609 8.71199 17.9203 8.71199 18.0804 8.90111C18.2404 9.09023 18.2404 9.39705 18.0804 9.58617L5.91136 23.9637C5.83133 24.0583 5.72631 24.1055 5.62159 24.1055C5.51629 24.1055 5.41156 24.0583 5.33152 23.9637ZM24.9536 31.1392C24.9536 31.4068 24.7699 31.6238 24.5435 31.6238H0.410117C0.18363 31.6238 0 31.4068 0 31.1392C0 30.8716 0.18363 30.6547 0.410117 30.6547H24.5435C24.7699 30.655 24.9536 30.8716 24.9536 31.1392Z" fill="white"/>
</svg>
