<svg width="25" height="32" viewBox="0 0 25 32" fill="none" xmlns="http://www.w3.org/2000/svg">
<path d="M12.0527 20.4351C12.4385 17.8672 13.1947 15.371 14.2975 13.0204C14.4728 12.6249 14.6566 12.2378 14.8545 11.8494C14.6636 12.2364 14.4742 12.6249 14.2975 13.0232V13.0246C13.1947 15.3723 12.4385 17.8684 12.0527 20.4351Z" fill="white"/>
<path d="M17.606 9.15383C17.707 8.98828 17.8108 8.82694 17.9188 8.6684C17.8066 8.82693 17.7056 8.99248 17.606 9.15383Z" fill="white"/>
<path d="M1.84217 6.46094L5.98649 2.33211V1.01379C5.98649 0.716475 6.22781 0.47525 6.52523 0.47525C6.82266 0.47525 7.06397 0.716475 7.06397 1.01379V1.55234H19.4549V4.82287L19.4044 4.88038L19.584 4.67281C19.8926 4.31379 20.2055 3.987 20.5282 3.66445L20.5296 1.01381C20.5296 0.716489 20.2883 0.475264 19.9908 0.475264L6.52523 0.47525C6.38213 0.476653 6.2433 0.532767 6.14089 0.633743L0.168457 6.61229C0.265261 6.51833 0.39293 6.46363 0.527614 6.46082L1.84217 6.46094Z" fill="white"/>
<path d="M19.4339 21.3606L19.4549 21.3284V30.3982H1.0804V7.53808H0.538861C0.395758 7.53808 0.259674 7.48058 0.158657 7.3796C0.0576402 7.27863 0.00292969 7.14259 0.00292969 6.99953V30.9367C0.00292969 31.234 0.244241 31.4752 0.541666 31.4752H19.9936C20.2911 31.4752 20.5324 31.234 20.5324 30.9367V19.619L20.4566 19.7481C20.1241 20.316 19.7832 20.8529 19.4339 21.3606Z" fill="white"/>
<path d="M18.5249 7.76403C18.6357 7.60549 18.748 7.44416 18.863 7.28703C18.7592 7.44837 18.6399 7.6027 18.5249 7.76403Z" fill="white"/>
<path d="M0.00280523 6.99959C0.00280523 6.89858 0.0322672 6.80037 0.0855802 6.71619C0.0294618 6.80037 0 6.89858 0 6.99959H0.00280523Z" fill="white"/>
<path d="M7.06367 6.99949V1.5523H6.75502L5.98621 2.33208V6.46091H1.84189L1.08008 7.22245V7.538H6.52491C6.82233 7.538 7.06367 7.29681 7.06367 6.99949Z" fill="white"/>
<path d="M7.0638 1.55272V1.01399C7.0638 0.716561 6.82249 0.47525 6.52507 0.47525C6.22764 0.47525 5.98633 0.716561 5.98633 1.01399V2.33278L6.75514 1.55272H7.0638Z" fill="white"/>
<path d="M0.00292969 6.99968C0.00854153 7.2915 0.247046 7.52438 0.538865 7.52438H1.0804V7.20871L1.84221 6.4469H0.538865C0.404181 6.44971 0.275107 6.50302 0.179707 6.59702L0.147439 6.62928L0.103948 6.6826V6.70224C0.0506349 6.78642 0.0211733 6.88462 0.0211733 6.98564L0.00292969 6.99968Z" fill="white"/>
<path d="M0.161484 6.61928L0.13623 6.64453L0.168499 6.61226L0.161484 6.61928Z" fill="white"/>
<path d="M24.0958 10.8982C24.0775 10.929 24.0565 10.9599 24.0341 10.9879C24.0102 11.016 23.9835 11.0412 23.9555 11.0637C23.9246 11.0875 23.8924 11.1071 23.8587 11.124C23.8236 11.1436 23.7857 11.1562 23.7464 11.1646H23.6314C23.5949 11.1674 23.557 11.1674 23.5206 11.1646C23.4897 11.159 23.4588 11.1492 23.4308 11.1352L17.917 8.67247L22.979 10.9486C22.4978 12.7101 21.8762 14.4309 21.1214 16.0928C20.6472 17.1587 20.1141 18.1979 19.5263 19.2063C19.6525 18.9987 19.8995 18.8977 20.1338 18.958C20.368 19.0225 20.5308 19.2357 20.5322 19.4797V19.6228C21.1102 18.6214 21.6363 17.592 22.1091 16.5388C22.9495 14.6861 23.6285 12.7633 24.1378 10.7943C24.1266 10.8308 24.1125 10.8673 24.0957 10.9023L24.0958 10.8982Z" fill="white"/>
<path d="M17.9899 23.2132C17.8496 23.3746 17.7065 23.5331 17.562 23.6874C17.7051 23.5317 17.8482 23.3732 17.9899 23.2132Z" fill="white"/>
<path d="M15.2898 13.462C14.6065 14.957 14.0495 16.5067 13.623 18.0928C14.0509 16.5066 14.6079 14.9569 15.2898 13.462Z" fill="white"/>
<path d="M20.1339 18.9555C19.8996 18.8952 19.6527 18.9962 19.5264 19.2023C18.8081 20.4421 17.9649 21.6075 17.0123 22.679L13.0616 20.8839C13.0939 20.5781 13.1402 20.2415 13.2047 19.8755C13.2552 19.595 13.3127 19.2977 13.3801 18.9821C13.4488 18.6666 13.5204 18.3931 13.6031 18.0776L13.6045 18.0762C14.038 16.4942 14.602 14.9515 15.2895 13.4619C15.4901 13.0201 15.6949 12.5854 15.911 12.1548L16.1299 11.7383C16.2772 11.4508 16.4245 11.1633 16.5788 10.8842C16.6686 10.7229 16.7626 10.5645 16.8552 10.4032C16.9983 10.1521 17.1428 9.90112 17.2901 9.65709C17.3939 9.48879 17.4977 9.3233 17.6058 9.15782C17.7138 8.99233 17.8064 8.82684 17.9116 8.66976L17.53 8.48884H17.509C17.4711 8.47201 17.436 8.45097 17.4037 8.42432C17.3869 8.4117 17.3715 8.39768 17.3575 8.38225C17.3406 8.36682 17.3252 8.34999 17.3112 8.33176L17.2649 8.26725L17.2438 8.22377H17.2424C17.2298 8.19853 17.2186 8.17188 17.2101 8.14524C17.2059 8.11158 17.2059 8.07792 17.2101 8.04426C17.2087 8.03865 17.2087 8.03164 17.2101 8.02603V7.99798C17.2087 7.97414 17.2087 7.9503 17.2101 7.92505C17.2115 7.91804 17.2115 7.91103 17.2101 7.90402C17.2172 7.87456 17.2256 7.84651 17.2354 7.81847C17.234 7.80304 17.234 7.78902 17.2354 7.77499C17.234 7.76237 17.234 7.74835 17.2354 7.73572C16.966 8.13403 16.7037 8.53934 16.4483 8.95585C15.8787 9.88709 15.3484 10.8534 14.8574 11.8561C14.6666 12.2432 14.4772 12.6317 14.3004 13.0272H14.3018C13.1949 15.3763 12.4345 17.874 12.0459 20.4418C12.0459 20.5709 12.0094 20.6999 11.9996 20.8219C11.9883 20.9439 11.9743 21.0266 11.9673 21.1276C11.9743 21.0982 11.9841 21.0715 11.9953 21.0449C12.0122 21 12.0374 20.9593 12.0669 20.9229C12.0978 20.885 12.1328 20.8527 12.1707 20.8261C12.2128 20.7952 12.2591 20.7728 12.3082 20.7574L12.3938 20.7391H12.5916C12.6154 20.742 12.6379 20.7504 12.6603 20.7602H12.6856L12.7572 20.7995V20.8009C12.7824 20.8163 12.8049 20.8359 12.8245 20.8584C12.8455 20.8808 12.8652 20.9046 12.882 20.9299C12.9003 20.9537 12.9143 20.9804 12.9255 21.0084C12.9367 21.0379 12.9451 21.0673 12.9508 21.0982C12.955 21.1276 12.955 21.1585 12.9508 21.1879V21.2454C12.9255 21.5259 12.9115 21.7798 12.9045 22.0098L16.1369 23.4669C16.3052 23.3056 16.496 23.1289 16.6798 22.9242L16.6784 22.9256C16.7261 22.8765 16.7822 22.8358 16.844 22.8078C16.938 22.7741 17.039 22.7699 17.1344 22.7966H17.1709C17.2312 22.798 17.2901 22.8092 17.3462 22.8288C17.4094 22.8541 17.4669 22.8905 17.516 22.9368C17.5511 22.9705 17.5819 23.0083 17.6058 23.0518V23.0728C17.6465 23.15 17.6689 23.2369 17.6703 23.3239V23.3449V23.3463C17.6689 23.4024 17.6577 23.4585 17.638 23.5104C17.6128 23.5721 17.5791 23.6296 17.537 23.6801C17.6801 23.5258 17.8246 23.3674 17.9649 23.2061C18.0112 23.1556 18.0547 23.1023 18.0982 23.0518C18.2062 22.9298 18.3101 22.8106 18.4111 22.6928C18.4616 22.6353 18.5079 22.5778 18.5542 22.5175C18.665 22.3772 18.7772 22.2342 18.8853 22.0897L18.9863 21.9565C19.1294 21.763 19.2697 21.5694 19.41 21.3675C19.7565 20.8626 20.0988 20.3269 20.4342 19.7588L20.5099 19.6298V19.4868H20.5071C20.5141 19.2455 20.3626 19.0299 20.1339 18.9555Z" fill="white"/>
<path d="M16.4523 8.94901C15.8827 9.88026 15.3524 10.8466 14.8613 11.8493C15.3566 10.8493 15.8869 9.88303 16.4523 8.94901Z" fill="white"/>
<path d="M13.6877 24.8178C13.6232 24.7883 13.5642 24.7448 13.5151 24.6929V24.7322L13.7059 24.8178H13.6877Z" fill="white"/>
<path d="M12.2831 21.7197H12.2508C12.2144 21.7014 12.1807 21.6804 12.1498 21.6552L12.1428 21.6089C12.1119 21.5794 12.0853 21.5472 12.0642 21.5121C12.0628 21.5009 12.0628 21.4897 12.0642 21.4784C12.0432 21.4434 12.0278 21.4041 12.0165 21.3648C12.0151 21.3508 12.0151 21.3382 12.0165 21.3242C12.0137 21.2975 12.0137 21.2695 12.0165 21.2428C11.9169 22.1039 11.9352 22.9749 12.0741 23.8303C12.1176 23.9902 12.2298 24.1221 12.3799 24.1894L12.5707 24.2749L12.7896 23.7827V23.7841C12.878 23.5877 13.0758 23.4629 13.2918 23.4671C13.5079 23.4713 13.7001 23.6046 13.7801 23.8051C13.9091 23.7532 14.0536 23.7532 14.1827 23.8051L13.1052 23.3128V23.3142C13.0589 22.8823 13.0435 22.4475 13.0618 22.0142L12.3013 21.7196L12.2831 21.7197Z" fill="white"/>
<path d="M12.5019 21.7705C12.4331 21.7705 12.3644 21.7564 12.3013 21.7312L12.9943 22.0441C12.9943 21.814 13.0154 21.5586 13.0406 21.2794V21.2388C13.0392 21.3805 12.9817 21.5165 12.8807 21.6162C12.7797 21.7158 12.6436 21.7719 12.5019 21.7705Z" fill="white"/>
<path d="M13.0014 25.835H13.1052L13.1908 25.8603L13 25.7775L13.477 24.7001L12.5019 24.2904L11.8019 25.8449C11.7457 25.9781 11.7457 26.1269 11.8019 26.2587C11.8538 26.392 11.9548 26.5 12.0853 26.5604L12.2761 26.6459L12.5019 26.1549C12.5889 25.9571 12.7853 25.8308 13.0014 25.835Z" fill="white"/>
<path d="M13.5149 24.6932C13.39 24.5613 13.3409 24.3747 13.383 24.1994C13.4265 24.0226 13.5556 23.8795 13.7267 23.8206C13.6468 23.62 13.4546 23.4867 13.2385 23.4811C13.0224 23.4768 12.8246 23.6017 12.7348 23.7981L12.502 24.2906L13.4826 24.7325L13.5149 24.6932Z" fill="white"/>
<path d="M14.1289 23.8348C14.2566 23.8937 14.3562 23.999 14.4081 24.1294C14.5372 24.0761 14.6817 24.0761 14.8107 24.1294C14.9426 24.187 15.0464 24.2964 15.0984 24.4311C15.1489 24.5658 15.1447 24.7159 15.0843 24.8478L14.8613 25.3402L15.0521 25.4258C15.1222 25.4567 15.198 25.4735 15.2737 25.4721C15.3649 25.4735 15.4547 25.4496 15.5333 25.4047C16.274 24.9404 16.9461 24.375 17.5297 23.7226C17.4988 23.7535 17.4638 23.7773 17.4259 23.7955C17.3796 23.818 17.3319 23.8348 17.2814 23.846C17.2463 23.8601 17.2084 23.8699 17.1705 23.8741H17.0555C17.0246 23.8685 16.9938 23.8587 16.9657 23.846L16.2474 23.5262C15.9331 23.825 15.5978 24.1014 15.2457 24.3553L14.1289 23.8348Z" fill="white"/>
<path d="M13.8808 24.9046V24.8654C13.8078 24.8611 13.7363 24.8457 13.6689 24.8177L13.8808 24.9046Z" fill="white"/>
<path d="M16.9408 23.821C16.7809 23.7495 16.6658 23.6036 16.6321 23.431C16.5985 23.2598 16.6504 23.0817 16.7724 22.9554C16.5788 23.1602 16.4133 23.3356 16.2295 23.4983L16.9478 23.8182L16.9408 23.821Z" fill="white"/>
<path d="M13.72 24.233L13.5151 24.6862C13.5642 24.7381 13.6232 24.7802 13.6877 24.811C13.755 24.8391 13.8266 24.8545 13.8995 24.8573L14.1002 24.4042V24.4056C14.1605 24.2723 14.2713 24.1699 14.4088 24.1222C14.3569 23.9917 14.2573 23.8851 14.1296 23.8276C14.0006 23.7757 13.8561 23.7757 13.727 23.8276C13.7775 23.958 13.7747 24.104 13.72 24.233Z" fill="white"/>
<path d="M13.4184 24.1041C13.3272 24.3019 13.3665 24.5348 13.5152 24.6933L13.72 24.2332C13.7775 24.0985 13.7775 23.947 13.72 23.8123C13.5839 23.8642 13.4745 23.9694 13.4184 24.1041Z" fill="white"/>
<path d="M20.403 5.38386C20.7229 5.02483 21.0386 4.68404 21.3725 4.35025C21.6587 4.06976 22.0852 3.99403 22.45 4.15531L23.3296 4.55362V4.55502C23.7056 4.7163 23.9399 5.09776 23.9118 5.50587C23.8136 6.98546 23.5878 8.45242 23.237 9.89284L18.5356 7.76811L23.826 10.1551C23.8808 10.1831 23.9313 10.2182 23.9762 10.2589C24.0196 10.3023 24.0547 10.3514 24.08 10.4061C24.1052 10.4594 24.1221 10.5169 24.1277 10.5758V10.6263C24.1305 10.6586 24.1305 10.6908 24.1277 10.7231C24.5822 9.03452 24.8726 7.3067 24.9961 5.56347C25.0466 4.71077 24.5654 3.917 23.7868 3.56777L22.9169 3.17226C22.1383 2.82446 21.2264 2.98995 20.6189 3.58881L20.5473 3.66454V5.02914H20.5459C20.5445 5.16097 20.4928 5.28709 20.403 5.38386Z" fill="white"/>
<path d="M19.4083 4.88193L19.7675 5.04742V5.04602C20.0397 5.16803 20.1603 5.4878 20.0383 5.75988C19.9162 6.03055 19.5977 6.15258 19.3256 6.03055L18.697 5.74726C18.2088 6.36152 17.7304 6.99686 17.2856 7.6574V7.65599C17.3109 7.62795 17.3376 7.6013 17.3684 7.57746L17.3965 7.55221C17.4456 7.51855 17.4989 7.49331 17.555 7.47648C17.5999 7.46245 17.6476 7.45544 17.6953 7.45544H17.7528C17.8075 7.45965 17.8609 7.47367 17.91 7.49471L18.5104 7.76398C18.6255 7.6027 18.7433 7.44843 18.8696 7.28996C18.9959 7.13148 19.0351 7.06416 19.1207 6.95197C19.3971 6.59294 19.6777 6.23391 19.9653 5.87488L20.1842 5.61963L20.4031 5.38402C20.4914 5.28585 20.5405 5.15682 20.5391 5.02499V3.66039C20.2165 3.98296 19.9036 4.31673 19.595 4.66876L19.4083 4.88193Z" fill="white"/>
<path d="M17.917 8.67256L23.3941 11.1423C23.1585 11.0385 23.0294 10.7791 23.0883 10.528C23.1472 10.2756 23.3773 10.1017 23.6354 10.1129C23.707 10.1115 23.7785 10.1269 23.8431 10.155L18.5358 7.76802C18.4095 7.94333 18.2805 8.12705 18.1766 8.29253C18.0798 8.41454 17.9998 8.54634 17.917 8.67256Z" fill="white"/>
<path d="M18.2485 7.9913C18.2485 8.28732 18.01 8.52723 17.7139 8.53003C17.6452 8.53003 17.5778 8.516 17.5161 8.48935L17.9188 8.67314C18.0015 8.54687 18.0801 8.41499 18.1629 8.29293C18.2807 8.11335 18.4112 7.93377 18.522 7.76824L17.9216 7.49887C18.1194 7.58165 18.2485 7.77664 18.2485 7.9913Z" fill="white"/>
<path d="M13.3998 25.9666L13.2202 25.8853C13.2609 25.9021 13.2988 25.9259 13.331 25.9568H13.3563C13.3956 25.9919 13.4293 26.0312 13.4573 26.0747C13.4573 26.0747 13.4573 26.1069 13.4826 26.1252L13.5036 26.1687V26.1967C13.5457 26.323 13.5373 26.4605 13.4826 26.5811L13.2595 27.1058L13.4503 27.1914C13.519 27.2223 13.5934 27.2377 13.6692 27.2391C13.8824 27.2391 14.0746 27.1128 14.1616 26.9192L14.8799 25.3647L13.8992 24.9228L13.3998 25.9666Z" fill="white"/>
<path d="M14.8113 24.1431C14.6822 24.0898 14.5377 24.0898 14.4086 24.1431C14.4662 24.2764 14.4662 24.4265 14.4086 24.5598C14.3245 24.7534 14.1323 24.8783 13.9204 24.8797V24.919L14.9011 25.3609L15.1242 24.8685C15.1845 24.731 15.1859 24.5753 15.1256 24.4378C15.0666 24.3003 14.953 24.1936 14.8113 24.1431Z" fill="white"/>
<path d="M14.1 24.4125L13.8994 24.8656C14.1113 24.8642 14.3021 24.7394 14.3877 24.5458C14.4452 24.4125 14.4452 24.261 14.3877 24.1291C14.2586 24.1824 14.1548 24.2834 14.1 24.4125Z" fill="white"/>
<path d="M12.7669 26.8639L12.2745 26.645L11.5744 28.1995L11.5758 28.2009C11.5141 28.3314 11.5085 28.4815 11.559 28.6176C11.6109 28.7523 11.7147 28.8617 11.848 28.9192C11.9168 28.9515 11.9911 28.9684 12.0669 28.9698C12.2801 28.9698 12.4723 28.8435 12.5593 28.6499L13.2776 27.0954L12.7852 26.8723L12.7669 26.8639Z" fill="white"/>
<path d="M13.2199 25.8851L13.1343 25.8599C13.1637 25.8655 13.1918 25.8753 13.2199 25.8879V25.8851Z" fill="white"/>
<path d="M12.7668 26.8642C12.5325 26.7604 12.4035 26.505 12.461 26.2539C12.5171 26.0028 12.7444 25.8274 13.0011 25.8344C12.7837 25.8288 12.5859 25.9551 12.4975 26.1543L12.2744 26.6467L12.7669 26.8656L12.7668 26.8642Z" fill="white"/>
<path d="M13.5005 26.2118C13.5412 26.3381 13.5342 26.4742 13.4781 26.5948C13.4191 26.7267 13.3111 26.8291 13.175 26.881C13.0403 26.9315 12.8916 26.9259 12.7598 26.8642L13.2522 27.0873L13.4711 26.5948C13.5286 26.4756 13.5398 26.3381 13.5005 26.2118Z" fill="white"/>
<path d="M13.1236 25.8557H13.0198C12.8205 25.8515 12.6368 25.9553 12.5386 26.1279C12.4403 26.3004 12.4446 26.5123 12.5498 26.6806C12.655 26.849 12.8444 26.9458 13.0422 26.9318C13.24 26.9191 13.4154 26.7985 13.4968 26.6175C13.5529 26.4968 13.5599 26.3594 13.5178 26.2331V26.205L13.4968 26.1615C13.4968 26.1615 13.4968 26.1293 13.4715 26.111C13.4435 26.0675 13.4098 26.0269 13.3719 25.9918H13.3467C13.313 25.9623 13.2751 25.9385 13.2344 25.9202C13.2007 25.8936 13.1643 25.8711 13.1236 25.8557Z" fill="white"/>
<path d="M24.1533 10.5898C24.1617 10.6501 24.1617 10.7118 24.1533 10.7736V10.7371C24.1561 10.7048 24.1561 10.6725 24.1533 10.6403C24.1561 10.6333 24.1533 10.6178 24.1533 10.5898Z" fill="white"/>
<path d="M23.0786 10.6517C23.0786 10.8636 23.2049 11.0572 23.3985 11.1428C23.4265 11.1568 23.4574 11.1666 23.4883 11.1722C23.5248 11.175 23.5626 11.175 23.5991 11.1722H23.7184C23.7576 11.1638 23.7941 11.1512 23.8292 11.1329C23.8643 11.1161 23.8965 11.0951 23.926 11.0712C23.9555 11.0488 23.9821 11.0235 24.006 10.9954C24.0284 10.9674 24.0481 10.9379 24.0663 10.9057C24.0845 10.872 24.0986 10.8355 24.1098 10.7976C24.1182 10.7373 24.1182 10.6756 24.1098 10.6152C24.1042 10.5563 24.0887 10.4988 24.0635 10.4469C24.0509 10.3824 24.0284 10.322 23.9947 10.2673C23.9498 10.2252 23.8993 10.1901 23.8432 10.1621C23.7787 10.134 23.7071 10.1186 23.6356 10.12C23.4911 10.1144 23.3508 10.1677 23.2456 10.2687C23.1403 10.3683 23.0814 10.5058 23.0786 10.6517Z" fill="white"/>
<path d="M17.1706 7.99115V8.01921C17.1664 7.98554 17.1664 7.95186 17.1706 7.91819C17.1692 7.94204 17.1692 7.9673 17.1706 7.99115Z" fill="white"/>
<path d="M17.2423 7.71755C17.2409 7.73018 17.2409 7.74421 17.2423 7.75684L17.2787 7.68529L17.2423 7.71755Z" fill="white"/>
<path d="M17.2679 7.68954L17.2427 7.7176L17.2637 7.68533C17.2651 7.68533 17.2679 7.69235 17.2679 7.68954Z" fill="white"/>
<path d="M17.714 7.45258C17.6663 7.45118 17.6186 7.45959 17.5737 7.47362C17.627 7.45679 17.6832 7.45118 17.7379 7.45538L17.714 7.45258Z" fill="white"/>
<path d="M17.2749 7.68527C17.3044 7.64459 17.338 7.60951 17.3759 7.57724C17.3451 7.60109 17.3184 7.62775 17.2931 7.65581C17.2861 7.66563 17.2805 7.67545 17.2749 7.68527Z" fill="white"/>
<path d="M17.2746 7.68524C17.2802 7.67542 17.2858 7.6656 17.2928 7.65578L17.2676 7.68805L17.2746 7.68524Z" fill="white"/>
<path d="M17.265 7.69645L17.2285 7.768C17.2271 7.78203 17.2271 7.79606 17.2285 7.81149C17.2187 7.83955 17.2103 7.86761 17.2033 7.89707C17.2047 7.90408 17.2047 7.9111 17.2033 7.91811C17.2005 7.95178 17.2005 7.98546 17.2033 8.01913C17.2005 8.02474 17.2005 8.03175 17.2033 8.03736C17.2075 8.0991 17.2229 8.16083 17.2496 8.21694L17.2706 8.26043L17.3169 8.32497H17.3183C17.3324 8.34321 17.3478 8.36005 17.3646 8.37408C17.3786 8.39091 17.3941 8.40494 17.4123 8.41757C17.4502 8.44843 17.4923 8.47228 17.5372 8.48912C17.6003 8.51577 17.6677 8.5298 17.735 8.5298C17.9875 8.52559 18.2036 8.34742 18.2555 8.0991C18.306 7.85078 18.1783 7.60106 17.9468 7.49862C17.8963 7.47618 17.843 7.46355 17.7883 7.45934H17.756C17.7013 7.45373 17.6452 7.46074 17.5919 7.47618C17.5344 7.49301 17.4811 7.51826 17.4334 7.55194L17.4053 7.57719H17.4039C17.366 7.60946 17.3323 7.64453 17.3043 7.68522L17.265 7.69645Z" fill="white"/>
<path d="M17.1962 8.13836C17.2046 8.16502 17.2158 8.19168 17.2284 8.21693C17.2018 8.16081 17.1863 8.09908 17.1821 8.03735C17.1821 8.07102 17.1877 8.10469 17.1962 8.13836Z" fill="white"/>
<path d="M17.4935 8.48194H17.5159C17.4696 8.46511 17.4275 8.44125 17.3896 8.41039C17.4219 8.43845 17.457 8.4623 17.4935 8.48194Z" fill="white"/>
<path d="M16.6278 4.22132L14.1712 9.6782C14.1024 9.80863 14.0912 9.9629 14.1389 10.1045C14.1866 10.2448 14.2918 10.3584 14.4265 10.4201C14.5626 10.4804 14.7169 10.4832 14.8544 10.4271C14.9919 10.3696 15.0999 10.2588 15.1519 10.12L17.3896 5.15532L18.7042 5.74715C18.8473 5.56343 18.9918 5.38812 19.1391 5.19457L19.4042 4.88182L17.3391 3.95201C17.0683 3.83 16.7512 3.95065 16.6278 4.22132Z" fill="white"/>
<path d="M18.7041 5.7475L19.3256 6.0309C19.5978 6.15295 19.9163 6.0309 20.0383 5.76013C20.1604 5.48795 20.0397 5.16809 19.7676 5.04601L19.4084 4.88046L19.139 5.19332C18.9917 5.3729 18.8486 5.56368 18.7041 5.7475Z" fill="white"/>
<path d="M17.5581 23.6871H17.5623L17.5581 23.6899V23.6871Z" fill="white"/>
<path d="M17.6983 23.3282C17.6983 23.2398 17.6759 23.1542 17.6338 23.0771C17.6773 23.1613 17.6983 23.2552 17.6955 23.3492C17.6955 23.3492 17.6983 23.3352 17.6983 23.3282Z" fill="white"/>
<path d="M17.5298 22.9396C17.5663 22.9733 17.5957 23.0126 17.6196 23.0547C17.5957 23.0126 17.5649 22.9733 17.5298 22.9396Z" fill="white"/>
<path d="M17.5582 23.6901C17.6017 23.6396 17.6353 23.5834 17.6592 23.5217C17.6339 23.5877 17.596 23.6494 17.5483 23.7013L17.5582 23.6901Z" fill="white"/>
<path d="M17.2651 23.8739C17.3142 23.8626 17.3619 23.8458 17.4082 23.8234C17.3633 23.8472 17.3142 23.864 17.2651 23.8739Z" fill="white"/>
<path d="M17.4331 23.7884C17.471 23.7702 17.5075 23.7463 17.5369 23.7155L17.558 23.6944C17.5215 23.7323 17.4794 23.7632 17.4331 23.7884Z" fill="white"/>
<path d="M17.5483 23.7015L17.5273 23.7225H17.5259C17.5329 23.7127 17.5413 23.7043 17.5511 23.6987L17.5483 23.7015Z" fill="white"/>
<path d="M17.1201 23.8738H17.1706C17.2001 23.878 17.2309 23.878 17.2604 23.8738C17.2141 23.8794 17.1664 23.8794 17.1201 23.8738Z" fill="white"/>
<path d="M16.9404 23.8207C16.9699 23.8333 16.9994 23.8431 17.0302 23.8488H17.0625C17.0204 23.8446 16.9797 23.8347 16.9404 23.8207Z" fill="white"/>
<path d="M16.9409 23.8211C16.9858 23.8407 17.0335 23.8533 17.0812 23.8604H17.1205C17.164 23.866 17.2075 23.866 17.2496 23.8604C17.2959 23.8505 17.3408 23.8351 17.3829 23.8127L17.4193 23.7916C17.4614 23.7692 17.4993 23.7397 17.5344 23.706C17.5821 23.6527 17.62 23.5924 17.6452 23.5265C17.6649 23.4731 17.6761 23.417 17.6775 23.3609C17.6803 23.2655 17.6592 23.1729 17.6158 23.0873V23.0663C17.5947 23.02 17.5653 22.9779 17.5302 22.94C17.4811 22.8951 17.4235 22.8586 17.3618 22.8334C17.3015 22.8123 17.2384 22.8011 17.1752 22.8011C17.1093 22.8011 17.0448 22.8166 16.9844 22.8432C16.7894 22.9302 16.6646 23.1224 16.6646 23.3357C16.6646 23.5489 16.7894 23.7411 16.9844 23.8281L16.9409 23.8211Z" fill="white"/>
<path d="M17.5514 23.6986L17.5483 23.7017V23.6986H17.5514Z" fill="white"/>
<path d="M11.9631 21.2429V21.1854V21.1237C11.9589 21.1601 11.9589 21.198 11.9631 21.2345V21.2429Z" fill="white"/>
<path d="M12.0027 21.0382C11.9914 21.0649 11.9816 21.0915 11.9746 21.1196V21.1813C11.9774 21.1322 11.9872 21.0845 12.0027 21.0382Z" fill="white"/>
<path d="M11.9676 21.1854V21.243C11.9634 21.2696 11.9634 21.2977 11.9676 21.3243C11.962 21.278 11.962 21.2317 11.9676 21.1854Z" fill="white"/>
<path d="M11.9676 21.1856C11.962 21.2319 11.962 21.2782 11.9676 21.3245C11.9648 21.3385 11.9648 21.3511 11.9676 21.3652C11.9774 21.4044 11.9928 21.4437 12.0139 21.4788C12.0125 21.49 12.0125 21.5012 12.0139 21.5125C12.0363 21.5475 12.063 21.5798 12.0925 21.6093L12.1177 21.6373C12.1486 21.6626 12.1822 21.6836 12.2187 21.7019L12.2692 21.7299V21.7313C12.3324 21.7566 12.4011 21.7706 12.4698 21.7706C12.7645 21.7706 13.003 21.5335 13.0044 21.2389C13.0086 21.2094 13.0086 21.1786 13.0044 21.1491C12.9988 21.1182 12.9903 21.0888 12.9791 21.0593C12.9693 21.0312 12.9539 21.0046 12.937 20.9807C12.9202 20.9541 12.9006 20.9302 12.8795 20.9078C12.8585 20.8867 12.836 20.8671 12.8108 20.8503L12.7392 20.811H12.714C12.6929 20.8012 12.6691 20.7927 12.6452 20.7899H12.4306L12.345 20.8082H12.3436C12.2959 20.8236 12.2496 20.8461 12.2075 20.8755C12.1682 20.9036 12.1331 20.9358 12.1037 20.9737C12.0728 21.0102 12.049 21.0509 12.0321 21.0958C12.0139 21.1421 12.0013 21.1898 11.9956 21.2389L11.9676 21.1856Z" fill="white"/>
<path d="M12.301 21.7197H12.2505L12.2828 21.7407L12.301 21.7197Z" fill="white"/>
<path d="M2.78337 18.003H8.76981C9.06723 18.003 9.30854 17.7618 9.30854 17.4645V14.0831L8.23107 15.494V16.9301H3.3221V12.0258H8.23107V13.727L9.30854 12.3161V11.4802C9.30854 11.1829 9.06723 10.9417 8.76981 10.9417H2.78337C2.48594 10.9417 2.24463 11.1829 2.24463 11.4802V17.4645C2.24463 17.7618 2.48594 18.003 2.78337 18.003Z" fill="white"/>
<path d="M12.1931 10.3094C12.3741 10.0724 12.3278 9.73435 12.0907 9.55344C11.8536 9.37392 11.5154 9.4188 11.3345 9.65582L9.30859 12.3093V14.0834L12.1931 10.3094Z" fill="white"/>
<path d="M7.13583 15.1534L5.34004 13.3582C5.24043 13.2559 5.10294 13.1984 4.95984 13.1984C4.81673 13.1984 4.67924 13.2559 4.57963 13.3582C4.37059 13.5686 4.37059 13.908 4.57963 14.1184L6.80892 16.3343C6.91134 16.4338 7.04743 16.4913 7.19053 16.4927H7.227H7.2256C7.38133 16.4801 7.52584 16.403 7.62125 16.281L8.23153 15.4802V13.7201L7.13583 15.1534Z" fill="white"/>
<path d="M8.23096 15.4941L9.30843 14.0832V12.3091L8.23096 13.72V15.4941Z" fill="white"/>
<path d="M2.78337 26.9873H8.76981C9.06723 26.9873 9.30854 26.7461 9.30854 26.4488V20.4631C9.30854 20.1657 9.06723 19.9245 8.76981 19.9245H2.78337C2.48594 19.9245 2.24463 20.1657 2.24463 20.4631V26.4488C2.24463 26.7461 2.48594 26.9873 2.78337 26.9873ZM3.3221 21.0016H8.23107V25.9102H3.3221V21.0016Z" fill="white"/>
</svg>
