<svg width="215" height="45" viewBox="0 0 215 45" fill="none" xmlns="http://www.w3.org/2000/svg">
<path d="M52.216 36V34.656H52.632C53.1227 34.656 53.56 34.6027 53.944 34.496C54.3493 34.3893 54.6693 34.176 54.904 33.856C55.1387 33.5147 55.256 33.0133 55.256 32.352V16.672C55.256 16.032 55.128 15.5627 54.872 15.264C54.6373 14.944 54.3173 14.7413 53.912 14.656C53.528 14.5493 53.1013 14.496 52.632 14.496H52.216V13.152H61.208C63.896 13.152 65.88 13.7493 67.16 14.944C68.44 16.1173 69.08 17.7493 69.08 19.84C69.08 20.8 68.9307 21.7173 68.632 22.592C68.3333 23.4453 67.8427 24.2133 67.16 24.896C66.4987 25.5787 65.6133 26.1227 64.504 26.528C63.416 26.912 62.0827 27.104 60.504 27.104H58.488V32.512C58.488 33.1307 58.6053 33.6 58.84 33.92C59.096 34.2187 59.416 34.4213 59.8 34.528C60.2053 34.6133 60.6427 34.656 61.112 34.656H62.168V36H52.216ZM60.184 25.6C61.144 25.6 61.9653 25.504 62.648 25.312C63.352 25.0987 63.9173 24.768 64.344 24.32C64.792 23.872 65.112 23.296 65.304 22.592C65.5173 21.8667 65.624 20.992 65.624 19.968C65.624 18.7733 65.464 17.792 65.144 17.024C64.824 16.2347 64.3013 15.648 63.576 15.264C62.8507 14.88 61.88 14.688 60.664 14.688H58.488V25.6H60.184ZM76.8725 36.32C75.9338 36.32 75.0805 36.1387 74.3125 35.776C73.5658 35.392 72.9792 34.8267 72.5525 34.08C72.1258 33.312 71.9125 32.352 71.9125 31.2C71.9125 29.4933 72.5098 28.2347 73.7045 27.424C74.9205 26.6133 76.7552 26.1653 79.2085 26.08L81.8645 25.984V24.064C81.8645 23.296 81.8005 22.624 81.6725 22.048C81.5445 21.4507 81.2672 20.9813 80.8405 20.64C80.4138 20.2987 79.7632 20.128 78.8885 20.128C78.0778 20.128 77.4592 20.2773 77.0325 20.576C76.6058 20.8747 76.3178 21.2907 76.1685 21.824C76.0405 22.336 75.9765 22.9333 75.9765 23.616C75.0805 23.616 74.3978 23.4667 73.9285 23.168C73.4805 22.848 73.2565 22.3253 73.2565 21.6C73.2565 20.8533 73.5125 20.256 74.0245 19.808C74.5578 19.36 75.2618 19.04 76.1365 18.848C77.0112 18.6347 77.9712 18.528 79.0165 18.528C80.9792 18.528 82.4405 18.944 83.4005 19.776C84.3818 20.608 84.8725 22.0373 84.8725 24.064V32.352C84.8725 32.9493 84.9365 33.4187 85.0645 33.76C85.1925 34.08 85.4058 34.3147 85.7045 34.464C86.0032 34.592 86.3872 34.656 86.8565 34.656H86.9525V36H82.6325L82.1205 33.248H81.8645C81.4165 33.8453 80.9792 34.3787 80.5525 34.848C80.1258 35.296 79.6245 35.6587 79.0485 35.936C78.4938 36.192 77.7685 36.32 76.8725 36.32ZM77.6085 34.336C78.4832 34.336 79.2298 34.1547 79.8485 33.792C80.4885 33.4293 80.9792 32.9173 81.3205 32.256C81.6832 31.5733 81.8645 30.784 81.8645 29.888V27.296L79.8165 27.392C78.6005 27.4347 77.6405 27.616 76.9365 27.936C76.2538 28.256 75.7632 28.704 75.4645 29.28C75.1658 29.8347 75.0165 30.528 75.0165 31.36C75.0165 32.0213 75.1125 32.576 75.3045 33.024C75.4965 33.4507 75.7845 33.7813 76.1685 34.016C76.5525 34.2293 77.0325 34.336 77.6085 34.336ZM89.3997 36V34.656H89.4958C89.9864 34.656 90.4238 34.6027 90.8078 34.496C91.2131 34.3893 91.5331 34.176 91.7678 33.856C92.0024 33.5147 92.1198 33.0133 92.1198 32.352V22.368C92.1198 21.728 91.9918 21.2587 91.7358 20.96C91.5011 20.64 91.1811 20.4373 90.7758 20.352C90.3918 20.2453 89.9651 20.192 89.4958 20.192H89.3997V18.848H94.3278L94.9358 22.016H95.0958C95.3731 21.376 95.6718 20.7893 95.9918 20.256C96.3118 19.7227 96.7384 19.3067 97.2718 19.008C97.8051 18.688 98.5411 18.528 99.4798 18.528C100.653 18.528 101.517 18.7307 102.072 19.136C102.648 19.5413 102.936 20.1173 102.936 20.864C102.936 21.5253 102.701 22.0693 102.232 22.496C101.784 22.9227 101.026 23.136 99.9598 23.136C99.9598 22.5387 99.9064 22.0587 99.7998 21.696C99.6931 21.3333 99.5118 21.0667 99.2558 20.896C99.0211 20.7253 98.6904 20.64 98.2638 20.64C97.6664 20.64 97.1651 20.8747 96.7598 21.344C96.3544 21.8133 96.0344 22.4107 95.7998 23.136C95.5651 23.8613 95.3944 24.6187 95.2878 25.408C95.1811 26.176 95.1278 26.8693 95.1278 27.488V32.512C95.1278 33.1307 95.2451 33.6 95.4798 33.92C95.7358 34.2187 96.0558 34.4213 96.4398 34.528C96.8451 34.6133 97.2824 34.656 97.7517 34.656H98.6478V36H89.3997ZM112.59 36.32C110.265 36.32 108.441 35.552 107.118 34.016C105.817 32.48 105.166 30.3253 105.166 27.552C105.166 24.5653 105.785 22.3147 107.022 20.8C108.26 19.2853 110.009 18.528 112.27 18.528C114.34 18.528 115.961 19.168 117.134 20.448C118.329 21.728 118.926 23.6373 118.926 26.176V27.648H108.27C108.313 29.2053 108.516 30.4747 108.878 31.456C109.241 32.4373 109.764 33.1627 110.446 33.632C111.15 34.08 112.014 34.304 113.038 34.304C113.785 34.304 114.446 34.1973 115.022 33.984C115.62 33.7707 116.132 33.4933 116.558 33.152C117.006 32.8107 117.358 32.448 117.614 32.064C117.764 32.128 117.902 32.256 118.03 32.448C118.158 32.64 118.222 32.8747 118.222 33.152C118.222 33.5787 118.02 34.0373 117.614 34.528C117.209 35.0187 116.59 35.4453 115.758 35.808C114.926 36.1493 113.87 36.32 112.59 36.32ZM115.694 25.92C115.694 24.7893 115.577 23.7973 115.342 22.944C115.129 22.0907 114.766 21.4293 114.254 20.96C113.742 20.4907 113.06 20.256 112.206 20.256C111.417 20.256 110.745 20.48 110.19 20.928C109.657 21.3547 109.23 21.984 108.91 22.816C108.612 23.648 108.42 24.6827 108.334 25.92H115.694ZM129.715 36.32C127.39 36.32 125.566 35.552 124.243 34.016C122.942 32.48 122.291 30.3253 122.291 27.552C122.291 24.5653 122.91 22.3147 124.147 20.8C125.385 19.2853 127.134 18.528 129.395 18.528C131.465 18.528 133.086 19.168 134.259 20.448C135.454 21.728 136.051 23.6373 136.051 26.176V27.648H125.395C125.438 29.2053 125.641 30.4747 126.003 31.456C126.366 32.4373 126.889 33.1627 127.571 33.632C128.275 34.08 129.139 34.304 130.163 34.304C130.91 34.304 131.571 34.1973 132.147 33.984C132.745 33.7707 133.257 33.4933 133.683 33.152C134.131 32.8107 134.483 32.448 134.739 32.064C134.889 32.128 135.027 32.256 135.155 32.448C135.283 32.64 135.347 32.8747 135.347 33.152C135.347 33.5787 135.145 34.0373 134.739 34.528C134.334 35.0187 133.715 35.4453 132.883 35.808C132.051 36.1493 130.995 36.32 129.715 36.32ZM132.819 25.92C132.819 24.7893 132.702 23.7973 132.467 22.944C132.254 22.0907 131.891 21.4293 131.379 20.96C130.867 20.4907 130.185 20.256 129.331 20.256C128.542 20.256 127.87 20.48 127.315 20.928C126.782 21.3547 126.355 21.984 126.035 22.816C125.737 23.648 125.545 24.6827 125.459 25.92H132.819ZM138.232 36V34.656H138.488C138.979 34.656 139.416 34.6027 139.8 34.496C140.206 34.3893 140.526 34.176 140.76 33.856C140.995 33.5147 141.112 33.0133 141.112 32.352V15.2C141.112 14.56 140.984 14.0907 140.728 13.792C140.494 13.472 140.174 13.2693 139.768 13.184C139.384 13.0773 138.958 13.024 138.488 13.024H138.232V11.68H144.12V24.032C144.12 24.3093 144.11 24.672 144.088 25.12C144.088 25.568 144.078 26.016 144.056 26.464C144.035 26.912 144.014 27.296 143.992 27.616C143.992 27.9147 143.992 28.064 143.992 28.064L147.992 23.68C148.462 23.168 148.814 22.7413 149.048 22.4C149.304 22.0373 149.486 21.7387 149.592 21.504C149.699 21.248 149.752 21.024 149.752 20.832C149.752 20.5547 149.624 20.384 149.368 20.32C149.112 20.2347 148.718 20.192 148.184 20.192V18.848H155.256V20.192C154.894 20.192 154.531 20.256 154.168 20.384C153.806 20.512 153.443 20.704 153.08 20.96C152.718 21.216 152.344 21.536 151.96 21.92C151.576 22.2827 151.171 22.6987 150.744 23.168L148.504 25.696L152.76 32.032C153.144 32.5867 153.507 33.0667 153.848 33.472C154.211 33.856 154.595 34.1547 155 34.368C155.406 34.56 155.843 34.656 156.312 34.656H156.408V36H155.96C155.043 36 154.275 35.968 153.656 35.904C153.038 35.84 152.515 35.712 152.088 35.52C151.683 35.3067 151.288 34.9973 150.904 34.592C150.542 34.1653 150.136 33.6 149.688 32.896L146.488 27.872L144.12 29.632V32.512C144.12 33.1307 144.238 33.6 144.472 33.92C144.728 34.2187 145.048 34.4213 145.432 34.528C145.838 34.6133 146.275 34.656 146.744 34.656H146.84V36H138.232ZM163.095 36.32C162.028 36.32 161.1 36.192 160.311 35.936C159.522 35.68 158.903 35.3067 158.455 34.816C158.028 34.304 157.815 33.6747 157.815 32.928C157.815 32.352 157.932 31.904 158.167 31.584C158.402 31.264 158.668 31.04 158.967 30.912C159.287 30.784 159.575 30.72 159.831 30.72C159.831 31.4667 159.938 32.1493 160.151 32.768C160.364 33.3867 160.727 33.8773 161.239 34.24C161.751 34.6027 162.434 34.784 163.287 34.784C164.418 34.784 165.282 34.5173 165.879 33.984C166.498 33.4293 166.807 32.7253 166.807 31.872C166.807 31.3387 166.69 30.9013 166.455 30.56C166.242 30.2187 165.847 29.888 165.271 29.568C164.716 29.2267 163.916 28.832 162.871 28.384C161.783 27.8933 160.876 27.424 160.151 26.976C159.447 26.5067 158.914 25.9733 158.551 25.376C158.21 24.7573 158.039 23.9893 158.039 23.072C158.039 21.6213 158.583 20.512 159.671 19.744C160.78 18.9547 162.242 18.56 164.055 18.56C165.079 18.56 165.932 18.6987 166.615 18.976C167.319 19.232 167.842 19.584 168.183 20.032C168.546 20.48 168.727 20.9707 168.727 21.504C168.727 22.08 168.524 22.5493 168.119 22.912C167.735 23.2533 167.17 23.424 166.423 23.424C166.423 22.3573 166.199 21.5253 165.751 20.928C165.303 20.3307 164.61 20.032 163.671 20.032C162.946 20.032 162.359 20.1387 161.911 20.352C161.463 20.5653 161.132 20.864 160.919 21.248C160.727 21.632 160.631 22.08 160.631 22.592C160.631 23.1253 160.759 23.5733 161.015 23.936C161.292 24.2987 161.719 24.64 162.295 24.96C162.892 25.2587 163.66 25.6 164.599 25.984C165.73 26.4533 166.647 26.9227 167.351 27.392C168.055 27.8613 168.567 28.4053 168.887 29.024C169.228 29.6427 169.399 30.4 169.399 31.296C169.399 32.96 168.823 34.2187 167.671 35.072C166.519 35.904 164.994 36.32 163.095 36.32ZM171.389 36V34.656H171.645C172.135 34.656 172.573 34.6027 172.957 34.496C173.362 34.3893 173.682 34.176 173.917 33.856C174.151 33.5147 174.269 33.0133 174.269 32.352V15.2C174.269 14.56 174.141 14.0907 173.885 13.792C173.65 13.472 173.33 13.2693 172.924 13.184C172.541 13.0773 172.114 13.024 171.645 13.024H171.389V11.68H177.277V18.72C177.277 19.104 177.266 19.5093 177.245 19.936C177.223 20.3413 177.202 20.6933 177.181 20.992C177.159 21.2907 177.149 21.44 177.149 21.44H177.309C177.629 20.8 178.013 20.2667 178.461 19.84C178.93 19.392 179.453 19.0613 180.029 18.848C180.626 18.6347 181.287 18.528 182.013 18.528C183.847 18.528 185.245 19.0293 186.205 20.032C187.186 21.0133 187.677 22.6027 187.677 24.8V32.352C187.677 33.0133 187.783 33.5147 187.997 33.856C188.21 34.176 188.498 34.3893 188.861 34.496C189.245 34.6027 189.671 34.656 190.141 34.656H190.237V36H184.669V24.96C184.669 23.5733 184.402 22.496 183.869 21.728C183.357 20.96 182.45 20.576 181.149 20.576C180.274 20.576 179.549 20.7893 178.973 21.216C178.397 21.6427 177.97 22.2507 177.693 23.04C177.415 23.808 177.277 24.7147 177.277 25.76V32.512C177.277 33.1307 177.394 33.6 177.629 33.92C177.885 34.2187 178.205 34.4213 178.589 34.528C178.994 34.6133 179.431 34.656 179.901 34.656H179.997V36H171.389ZM197.685 36.32C196.746 36.32 195.893 36.1387 195.125 35.776C194.378 35.392 193.792 34.8267 193.365 34.08C192.938 33.312 192.725 32.352 192.725 31.2C192.725 29.4933 193.322 28.2347 194.517 27.424C195.733 26.6133 197.568 26.1653 200.021 26.08L202.677 25.984V24.064C202.677 23.296 202.613 22.624 202.485 22.048C202.357 21.4507 202.08 20.9813 201.653 20.64C201.226 20.2987 200.576 20.128 199.701 20.128C198.89 20.128 198.272 20.2773 197.845 20.576C197.418 20.8747 197.13 21.2907 196.981 21.824C196.853 22.336 196.789 22.9333 196.789 23.616C195.893 23.616 195.21 23.4667 194.741 23.168C194.293 22.848 194.069 22.3253 194.069 21.6C194.069 20.8533 194.325 20.256 194.837 19.808C195.37 19.36 196.074 19.04 196.949 18.848C197.824 18.6347 198.784 18.528 199.829 18.528C201.792 18.528 203.253 18.944 204.213 19.776C205.194 20.608 205.685 22.0373 205.685 24.064V32.352C205.685 32.9493 205.749 33.4187 205.877 33.76C206.005 34.08 206.218 34.3147 206.517 34.464C206.816 34.592 207.2 34.656 207.669 34.656H207.765V36H203.445L202.933 33.248H202.677C202.229 33.8453 201.792 34.3787 201.365 34.848C200.938 35.296 200.437 35.6587 199.861 35.936C199.306 36.192 198.581 36.32 197.685 36.32ZM198.421 34.336C199.296 34.336 200.042 34.1547 200.661 33.792C201.301 33.4293 201.792 32.9173 202.133 32.256C202.496 31.5733 202.677 30.784 202.677 29.888V27.296L200.629 27.392C199.413 27.4347 198.453 27.616 197.749 27.936C197.066 28.256 196.576 28.704 196.277 29.28C195.978 29.8347 195.829 30.528 195.829 31.36C195.829 32.0213 195.925 32.576 196.117 33.024C196.309 33.4507 196.597 33.7813 196.981 34.016C197.365 34.2293 197.845 34.336 198.421 34.336Z" fill="#001E2B"/>
<path d="M0.580922 0.42252L0 0.818604V19.4081C0 35.938 0.0528111 38.024 0.422488 38.3937C0.792166 38.7634 2.64055 38.8162 17.0052 38.8162C32.3468 38.8162 33.2182 38.7898 33.6142 38.3409C34.0367 37.892 34.0631 36.202 34.0631 19.4609C34.0631 1.39952 34.0631 1.05625 33.535 0.528141C33.0069 3.05176e-05 32.6636 3.05176e-05 17.0844 3.05176e-05C3.11585 3.05176e-05 1.10903 0.0528412 0.580922 0.42252ZM32.9541 1.10906C33.4558 1.61077 33.403 37.311 32.9013 37.7335C32.6636 37.9448 28.2011 37.9976 16.7411 37.9712L0.924194 37.892L0.844977 19.6986C0.818571 6.49579 0.871382 1.39952 1.08263 1.16187C1.50512 0.660168 32.4524 0.607357 32.9541 1.10906Z" fill="#001E2B"/>
<path d="M2.64056 4.62097V5.54517H12.8067H22.9728V4.62097V3.69678H12.8067H2.64056V4.62097Z" fill="#001E2B"/>
<path d="M23.5269 7.92167C21.7577 9.84927 21.1768 10.2982 20.5695 10.2982C19.9886 10.2982 19.7245 10.1133 19.3812 9.42679C19.1436 8.97789 18.9059 8.5554 18.8795 8.50259C18.8267 8.44978 18.4834 8.60821 18.0874 8.87227L17.4008 9.32116L17.9553 9.90209C18.4042 10.3774 18.4834 10.8263 18.4834 12.6219V14.7871H20.7279H22.9724V12.7011V10.6414L24.4247 9.4796C25.8506 8.34416 25.877 8.29135 25.877 6.94467C25.877 6.17891 25.8506 5.54517 25.7978 5.54517C25.7714 5.54517 24.7416 6.60139 23.5269 7.92167ZM22.1802 12.6747V13.9949H20.7279H19.2756V12.8595L19.302 11.7505L19.8301 12.3842L20.3582 13.0443L21.2032 12.1994C21.6521 11.7241 22.0746 11.3544 22.101 11.3544C22.1538 11.3544 22.1802 11.9353 22.1802 12.6747Z" fill="#001E2B"/>
<path d="M24.8214 12.5426V14.7871H27.1978H29.5743V12.5426V10.2982H27.1978H24.8214V12.5426ZM28.7822 12.5426V13.9949H27.2771H25.7455V12.5426V11.0903H27.2771H28.7822V12.5426Z" fill="#001E2B"/>
<path d="M2.64056 11.6184C2.64056 11.7769 5.1755 11.8825 9.10992 11.9353C14.1534 11.9881 15.5793 11.9353 15.5793 11.6712C15.5793 11.4336 14.1006 11.3544 9.10992 11.3544C5.12268 11.3544 2.64056 11.46 2.64056 11.6184Z" fill="#001E2B"/>
<path d="M2.64056 13.3348C2.64056 13.6781 3.53835 13.7309 9.10992 13.7309C14.6815 13.7309 15.5793 13.6781 15.5793 13.3348C15.5793 12.9915 14.6815 12.9387 9.10992 12.9387C3.53835 12.9387 2.64056 12.9915 2.64056 13.3348Z" fill="#001E2B"/>
<path d="M29.838 17.2956C27.2238 19.9098 26.5373 20.1474 25.7979 18.6159C25.4019 17.7973 25.2698 17.7181 24.8473 17.9558C24.0552 18.3519 23.9232 18.7215 24.3985 19.2497C24.7153 19.5929 24.8209 20.2531 24.8209 21.8638V24.0291H27.1974H29.5739V21.9694V19.9362L30.9206 18.7479C32.2145 17.5861 32.2409 17.5333 32.1617 16.2922L32.0825 15.0248L29.838 17.2956ZM28.6761 21.4413C28.5969 21.7846 28.5177 22.3127 28.5177 22.656C28.5177 23.2105 28.4121 23.2633 27.171 23.1841L25.7979 23.1049L25.6923 22.1014C25.5867 21.0188 25.8772 20.834 26.4317 21.6526C26.8014 22.2071 26.8014 22.2071 27.4615 21.5469C28.3065 20.702 28.8874 20.6491 28.6761 21.4413Z" fill="#001E2B"/>
<path d="M18.4839 21.7846V24.0291H20.7284H22.9728V21.7846V19.5401H20.7284H18.4839V21.7846ZM22.1807 21.7846V23.2369H20.7284H19.2761V21.7846V20.3323H20.7284H22.1807V21.7846Z" fill="#001E2B"/>
<path d="M2.64056 20.9924C2.64056 21.3357 3.53835 21.3885 9.10992 21.3885C14.6815 21.3885 15.5793 21.3357 15.5793 20.9924C15.5793 20.6491 14.6815 20.5963 9.10992 20.5963C3.53835 20.5963 2.64056 20.6491 2.64056 20.9924Z" fill="#001E2B"/>
<path d="M2.64056 22.7616C2.64056 23.0256 4.11927 23.1049 9.10992 23.1049C14.1006 23.1049 15.5793 23.0256 15.5793 22.7616C15.5793 22.5239 14.1006 22.4447 9.10992 22.4447C4.11927 22.4447 2.64056 22.5239 2.64056 22.7616Z" fill="#001E2B"/>
<path d="M18.4839 31.0265V33.271H20.7284H22.9728V31.0265V28.782H20.7284H18.4839V31.0265ZM22.1278 31.0793L22.2071 32.4788H20.7548H19.2761V31.0001V29.5478L20.6755 29.627L22.0486 29.7062L22.1278 31.0793Z" fill="#001E2B"/>
<path d="M24.8214 31.0265V33.271H27.1978H29.5743V31.0265V28.782H27.1978H24.8214V31.0265ZM28.7294 31.0793L28.8086 32.4788H27.2771H25.7455L25.7984 31.0793C25.8248 30.34 25.8512 29.6798 25.8776 29.627C25.8776 29.5742 26.5113 29.5742 27.2771 29.627L28.6502 29.7062L28.7294 31.0793Z" fill="#001E2B"/>
<path d="M9.05711 29.759C3.59116 29.8383 2.64056 29.9175 2.64056 30.2343C2.64056 30.5776 3.56476 30.6304 9.10992 30.6304C15.3944 30.6304 15.5793 30.604 15.5793 30.1023C15.5793 29.8119 15.5529 29.6006 15.5265 29.627C15.4737 29.6798 12.569 29.7326 9.05711 29.759Z" fill="#001E2B"/>
<path d="M2.64056 31.9507C2.64056 32.4524 2.8254 32.4788 9.10992 32.4788C15.3944 32.4788 15.5793 32.4524 15.5793 31.9507C15.5793 31.449 15.3944 31.4226 9.10992 31.4226C2.8254 31.4226 2.64056 31.449 2.64056 31.9507Z" fill="#001E2B"/>
<path d="M35.1192 7.39355V9.24194H36.9676H38.816V14.391V19.5401H36.9676H35.1192V20.8604V22.1807H36.9676C38.6311 22.1807 38.816 22.2335 38.816 22.7088C38.816 23.1841 38.6311 23.2369 36.9676 23.2369C35.3832 23.2369 35.1192 23.2897 35.1192 23.7122C35.1192 24.1347 35.3304 24.1611 36.9676 24.0818C38.816 23.9762 38.816 23.9762 38.816 24.6628C38.816 25.3493 38.7896 25.3493 36.9676 25.3493H35.1192V26.1679V26.9865L36.9148 26.8808C38.5783 26.8016 38.6839 26.828 38.7632 27.3825C38.8424 27.9635 38.7632 27.9899 36.994 27.9899C35.4889 27.9899 35.1192 28.0691 35.1192 28.386C35.1192 28.7292 35.4097 28.7556 36.9676 28.6236L38.816 28.4388V29.1517C38.816 29.8383 38.7896 29.8383 36.9676 29.8383H35.1192V30.6304V31.4226H36.9676C38.7896 31.4226 38.816 31.4226 38.816 32.1091V32.8221L36.9676 32.6901C35.5153 32.5844 35.1192 32.6372 35.1192 32.9013C35.1192 33.1918 35.5945 33.271 36.994 33.271C38.7632 33.271 38.8424 33.2974 38.7632 33.8519C38.6839 34.38 38.5519 34.4064 36.9148 34.3536L35.1192 34.3008V35.225V36.1756H36.9676C38.6311 36.1756 38.816 36.2284 38.816 36.7037C38.816 37.179 38.6311 37.2318 36.9676 37.2318C35.4889 37.2318 35.1192 37.311 35.1192 37.6279C35.1192 37.9448 35.4889 38.024 36.9676 38.024C38.6311 38.024 38.816 38.0768 38.816 38.5521C38.816 39.0274 38.6311 39.0802 36.7299 39.0802C35.1984 39.0802 34.5647 39.1858 34.327 39.4763C34.0366 39.8195 32.241 39.8724 21.0979 39.8724H8.18555V41.5359C8.18555 42.5921 8.31757 43.3843 8.60804 43.7804L9.00412 44.3613H25.3227C40.7964 44.3613 41.6678 44.3349 42.0638 43.886C42.4863 43.4371 42.5127 41.7471 42.5127 25.006V6.62779L41.8262 6.09968C41.2189 5.62438 40.7436 5.54517 38.1294 5.54517H35.1192V7.39355ZM41.0868 6.91825C41.4301 7.26152 41.4829 9.84927 41.4829 25.0853C41.4829 35.3042 41.3773 42.9618 41.2453 43.0938C40.8492 43.4899 9.71707 43.3579 9.45301 42.9618C9.34739 42.777 9.24177 42.2489 9.24177 41.7736V40.9286L20.9394 40.9022C33.1652 40.9022 33.9045 40.8758 34.4326 40.4269C34.8551 40.0836 35.7001 39.9252 37.258 39.8988C38.9744 39.8724 39.3705 39.4763 39.4761 37.7071C39.5553 36.6509 39.4761 36.1228 39.1856 35.8851C38.7103 35.489 38.7103 35.0137 39.212 34.5913C39.5025 34.3536 39.5817 33.9047 39.4761 32.7957C39.3969 31.9771 39.1856 31.1585 39.0272 30.9737C38.8424 30.736 38.8688 30.472 39.1328 30.0495C39.5289 29.4158 39.6081 27.3033 39.2385 26.7224C39.1328 26.5376 39.1328 26.0095 39.2385 25.5342C39.5289 24.3459 39.5289 22.6824 39.2649 22.0222C39.08 21.5733 38.7367 21.4149 37.7333 21.3357C35.6737 21.1244 35.5417 20.6491 37.4957 20.4907C39.5025 20.3323 39.6081 19.989 39.6081 14.4174C39.6081 8.74023 39.5025 8.44978 37.6013 8.44978C36.6243 8.44978 36.3867 8.34415 36.2018 7.84245C35.7265 6.60139 36.2546 6.33733 38.8952 6.44296C40.0306 6.49577 40.8492 6.6806 41.0868 6.91825Z" fill="#001E2B"/>
</svg>
